<svg width="1024" height="363" viewBox="0 0 1024 363" fill="none" xmlns="http://www.w3.org/2000/svg">
<rect width="1024" height="363" rx="15" fill="white"/>
<path d="M298.678 234.456L280.546 216.325C274.086 209.865 283.855 200.076 290.324 206.546L308.456 224.678C314.916 231.138 305.146 240.925 298.678 234.456Z" fill="#131AC1"/>
<path d="M323.684 187.915H298.042C288.905 187.915 288.895 174.086 298.042 174.086H323.684C332.821 174.085 332.831 187.915 323.684 187.915Z" fill="#131AC1"/>
<path d="M280.546 145.675L298.678 127.543C305.138 121.082 314.924 130.855 308.456 137.322L290.324 155.454C283.864 161.915 274.078 152.143 280.546 145.675Z" fill="#131AC1"/>
<path d="M298.802 249.59C291.969 242.756 291.969 231.636 298.802 224.803C305.636 217.969 316.756 217.969 323.589 224.803C330.423 231.637 330.423 242.756 323.589 249.59C316.756 256.422 305.637 256.424 298.802 249.59Z" fill="#3D45FF"/>
<path d="M334.473 198.527C324.808 198.527 316.946 190.665 316.946 181C316.946 171.335 324.808 163.473 334.473 163.473C344.137 163.473 352 171.335 352 181C352 190.665 344.137 198.527 334.473 198.527Z" fill="#3D45FF"/>
<path d="M298.802 137.197C291.969 130.363 291.969 119.244 298.802 112.41C305.636 105.577 316.756 105.576 323.589 112.41C330.423 119.244 330.423 130.363 323.589 137.197C316.756 144.031 305.636 144.031 298.802 137.197Z" fill="#3D45FF"/>
<path d="M255 144.872C251.181 144.872 248.085 141.776 248.085 137.958V112.316C248.085 103.179 261.914 103.169 261.914 112.316V137.959C261.915 141.777 258.819 144.872 255 144.872Z" fill="#3D45FF"/>
<path d="M255 105.401V144.873C258.819 144.873 261.915 141.777 261.915 137.958V112.315C261.915 108.496 258.819 105.401 255 105.401Z" fill="#131AC1"/>
<path d="M248.085 249.684V224.041C248.085 214.904 261.914 214.895 261.914 224.041V249.684C261.915 258.821 248.085 258.831 248.085 249.684Z" fill="#3D45FF"/>
<path d="M255 217.127V256.599C258.819 256.599 261.915 253.503 261.915 249.684V224.041C261.915 220.223 258.819 217.127 255 217.127Z" fill="#131AC1"/>
<path d="M219.675 155.454L201.543 137.322C195.084 130.862 204.853 121.074 211.322 127.544L229.454 145.675C235.914 152.135 226.144 161.923 219.675 155.454Z" fill="#3D45FF"/>
<path d="M211.959 187.915H186.316C177.179 187.915 177.169 174.086 186.316 174.086H211.959C221.095 174.085 221.105 187.915 211.959 187.915Z" fill="#3D45FF"/>
<path d="M201.544 224.677L219.675 206.545C226.136 200.084 235.921 209.857 229.454 216.324L211.322 234.455C204.915 240.864 194.994 231.228 201.544 224.677Z" fill="#3D45FF"/>
<path d="M255 119.054C245.336 119.054 237.473 111.191 237.473 101.527C237.473 91.8623 245.335 84 255 84C264.664 84 272.527 91.8623 272.527 101.527C272.527 111.191 264.664 119.054 255 119.054Z" fill="#262DC9"/>
<path d="M255 278C245.336 278 237.473 270.138 237.473 260.473C237.473 250.809 245.336 242.946 255 242.946C264.664 242.946 272.527 250.809 272.527 260.473C272.527 270.137 264.664 278 255 278Z" fill="#262DC9"/>
<path d="M255 242.946V278C264.664 278 272.527 270.138 272.527 260.473C272.527 250.809 264.664 242.946 255 242.946Z" fill="#3D45FF"/>
<path d="M186.41 137.197C179.56 130.348 179.56 119.261 186.41 112.41C193.244 105.578 204.364 105.576 211.197 112.41H211.198C218.031 119.244 218.031 130.363 211.198 137.197C204.364 144.031 193.245 144.032 186.41 137.197Z" fill="#262DC9"/>
<path d="M175.527 198.527C165.863 198.527 158 190.665 158 181C158 171.336 165.863 163.473 175.527 163.473C185.191 163.473 193.053 171.335 193.053 181C193.053 190.665 185.191 198.527 175.527 198.527Z" fill="#262DC9"/>
<path d="M186.41 249.59C179.561 242.74 179.559 231.653 186.41 224.803C193.244 217.969 204.364 217.969 211.197 224.803C218.031 231.637 218.031 242.756 211.198 249.59C204.365 256.422 193.245 256.424 186.41 249.59Z" fill="#262DC9"/>
<path d="M255 230.956C227.454 230.956 205.044 208.546 205.044 181C205.044 153.454 227.454 131.044 255 131.044C282.546 131.044 304.956 153.454 304.956 181C304.956 208.546 282.546 230.956 255 230.956Z" fill="#262DC9"/>
<path d="M255 84V119.054C264.664 119.054 272.527 111.191 272.527 101.527C272.527 91.8627 264.664 84 255 84Z" fill="#3D45FF"/>
<path d="M255 131.044V230.957C282.546 230.957 304.956 208.546 304.956 181.001C304.956 153.455 282.546 131.044 255 131.044Z" fill="#3D45FF"/>
<path d="M255 203.335C242.684 203.335 232.665 193.316 232.665 181C232.665 168.684 242.684 158.665 255 158.665C267.316 158.665 277.335 168.684 277.335 181C277.335 193.316 267.316 203.335 255 203.335Z" fill="#3D45FF"/>
<path d="M255 158.665V203.335C267.316 203.335 277.335 193.316 277.335 181C277.335 168.684 267.316 158.665 255 158.665Z" fill="#131AC1"/>
<path d="M445.67 159.625C443.727 143.5 431.523 134.227 415.364 134.227C396.92 134.227 382.841 147.25 382.841 170.091C382.841 192.864 396.682 205.955 415.364 205.955C433.261 205.955 444.068 194.057 445.67 181.205L430.739 181.136C429.341 188.602 423.477 192.898 415.602 192.898C405 192.898 397.807 185.023 397.807 170.091C397.807 155.568 404.898 147.284 415.705 147.284C423.784 147.284 429.614 151.955 430.739 159.625H445.67ZM479.642 206.023C495.528 206.023 505.415 195.148 505.415 179.023C505.415 162.795 495.528 151.955 479.642 151.955C463.756 151.955 453.869 162.795 453.869 179.023C453.869 195.148 463.756 206.023 479.642 206.023ZM479.71 194.773C472.381 194.773 468.631 188.057 468.631 178.92C468.631 169.784 472.381 163.034 479.71 163.034C486.903 163.034 490.653 169.784 490.653 178.92C490.653 188.057 486.903 194.773 479.71 194.773ZM561.895 152.636H546.52L535.679 190.102H535.134L524.259 152.636H508.918L527.224 205H543.588L561.895 152.636ZM631.202 159.625C629.259 143.5 617.054 134.227 600.895 134.227C582.452 134.227 568.372 147.25 568.372 170.091C568.372 192.864 582.213 205.955 600.895 205.955C618.793 205.955 629.599 194.057 631.202 181.205L616.27 181.136C614.872 188.602 609.009 192.898 601.134 192.898C590.531 192.898 583.338 185.023 583.338 170.091C583.338 155.568 590.429 147.284 601.236 147.284C609.315 147.284 615.145 151.955 616.27 159.625H631.202ZM656.037 174.727C656.071 167.977 660.196 164.023 666.128 164.023C672.026 164.023 675.503 167.807 675.469 174.25V205H689.991V171.659C690.026 159.386 682.798 151.955 671.889 151.955C663.946 151.955 658.628 155.705 656.241 161.875H655.628V135.182H641.514V205H656.037V174.727ZM725.284 206.023C738.239 206.023 746.966 199.716 749.011 190L735.58 189.114C734.114 193.102 730.364 195.182 725.523 195.182C718.261 195.182 713.659 190.375 713.659 182.568V182.534H749.318V178.545C749.318 160.75 738.545 151.955 724.705 151.955C709.295 151.955 699.307 162.898 699.307 179.057C699.307 195.659 709.159 206.023 725.284 206.023ZM713.659 173.534C713.966 167.568 718.5 162.795 724.943 162.795C731.25 162.795 735.614 167.295 735.648 173.534H713.659ZM782.455 206.023C796.398 206.023 805.159 197.841 805.841 185.807H792.136C791.284 191.398 787.602 194.534 782.625 194.534C775.841 194.534 771.443 188.841 771.443 178.818C771.443 168.932 775.875 163.273 782.625 163.273C787.943 163.273 791.352 166.784 792.136 172H805.841C805.227 159.898 796.057 151.955 782.386 151.955C766.5 151.955 756.682 162.966 756.682 179.023C756.682 194.943 766.33 206.023 782.455 206.023ZM815.139 205H829.662V188.364L833.582 183.898L847.866 205H864.878L844.457 175.307L863.889 152.636H847.219L830.446 172.511H829.662V135.182H815.139V205Z" fill="black"/>
<path d="M390.503 219.909H387.428L391.947 233H395.514L400.027 219.909H396.959L393.788 229.855H393.667L390.503 219.909ZM404.901 233.192C407.33 233.192 408.966 232.009 409.35 230.188L406.831 230.021C406.556 230.769 405.853 231.159 404.946 231.159C403.584 231.159 402.721 230.258 402.721 228.794V228.788H409.407V228.04C409.407 224.703 407.387 223.054 404.792 223.054C401.903 223.054 400.03 225.106 400.03 228.136C400.03 231.249 401.877 233.192 404.901 233.192ZM402.721 227.1C402.779 225.982 403.629 225.087 404.837 225.087C406.02 225.087 406.838 225.93 406.844 227.1H402.721ZM411.184 233H413.907V227.445C413.907 226.237 414.789 225.406 415.991 225.406C416.368 225.406 416.886 225.47 417.142 225.553V223.137C416.899 223.08 416.56 223.041 416.285 223.041C415.186 223.041 414.284 223.68 413.926 224.895H413.824V223.182H411.184V233ZM418.55 233H421.273V223.182H418.55V233ZM419.917 221.916C420.729 221.916 421.394 221.296 421.394 220.536C421.394 219.781 420.729 219.161 419.917 219.161C419.112 219.161 418.447 219.781 418.447 220.536C418.447 221.296 419.112 221.916 419.917 221.916ZM428.734 223.182H426.784V222.523C426.784 221.859 427.053 221.469 427.852 221.469C428.178 221.469 428.51 221.539 428.727 221.609L429.207 219.564C428.868 219.462 428.12 219.295 427.283 219.295C425.435 219.295 424.061 220.337 424.061 222.472V223.182H422.674V225.227H424.061V233H426.784V225.227H428.734V223.182ZM430.397 233H433.12V223.182H430.397V233ZM431.765 221.916C432.577 221.916 433.242 221.296 433.242 220.536C433.242 219.781 432.577 219.161 431.765 219.161C430.96 219.161 430.295 219.781 430.295 220.536C430.295 221.296 430.96 221.916 431.765 221.916ZM439.738 233.192C442.352 233.192 443.995 231.658 444.123 229.401H441.553C441.393 230.45 440.703 231.038 439.77 231.038C438.498 231.038 437.673 229.97 437.673 228.091C437.673 226.237 438.504 225.176 439.77 225.176C440.767 225.176 441.406 225.835 441.553 226.812H444.123C444.007 224.543 442.288 223.054 439.725 223.054C436.746 223.054 434.905 225.119 434.905 228.129C434.905 231.114 436.714 233.192 439.738 233.192ZM448.666 233.185C450.117 233.185 451.056 232.553 451.536 231.638H451.612V233H454.195V226.378C454.195 224.038 452.213 223.054 450.027 223.054C447.675 223.054 446.128 224.179 445.751 225.969L448.269 226.173C448.455 225.521 449.036 225.042 450.014 225.042C450.941 225.042 451.472 225.509 451.472 226.314V226.352C451.472 226.985 450.801 227.068 449.094 227.234C447.151 227.413 445.406 228.065 445.406 230.258C445.406 232.201 446.793 233.185 448.666 233.185ZM449.445 231.306C448.608 231.306 448.007 230.916 448.007 230.168C448.007 229.401 448.64 229.024 449.599 228.89C450.193 228.807 451.165 228.666 451.491 228.449V229.491C451.491 230.52 450.641 231.306 449.445 231.306ZM463.196 219.909H460.473V233H463.196V219.909ZM469.814 233.192C472.792 233.192 474.646 231.153 474.646 228.129C474.646 225.087 472.792 223.054 469.814 223.054C466.835 223.054 464.981 225.087 464.981 228.129C464.981 231.153 466.835 233.192 469.814 233.192ZM469.827 231.082C468.452 231.082 467.749 229.823 467.749 228.11C467.749 226.397 468.452 225.131 469.827 225.131C471.175 225.131 471.878 226.397 471.878 228.11C471.878 229.823 471.175 231.082 469.827 231.082ZM484.586 225.982C484.343 224.173 482.885 223.054 480.405 223.054C477.893 223.054 476.238 224.217 476.244 226.109C476.238 227.58 477.165 228.532 479.082 228.915L480.782 229.254C481.639 229.427 482.029 229.74 482.042 230.232C482.029 230.814 481.396 231.229 480.444 231.229C479.472 231.229 478.827 230.814 478.66 230.015L475.982 230.156C476.238 232.035 477.836 233.192 480.437 233.192C482.981 233.192 484.803 231.894 484.809 229.957C484.803 228.538 483.876 227.688 481.971 227.298L480.194 226.94C479.28 226.742 478.942 226.429 478.948 225.956C478.942 225.368 479.606 224.984 480.45 224.984C481.396 224.984 481.959 225.502 482.093 226.135L484.586 225.982ZM494.308 233.16C495.893 233.16 496.718 232.246 497.095 231.428H497.21V233H499.895V219.909H497.178V224.831H497.095C496.731 224.032 495.944 223.054 494.302 223.054C492.148 223.054 490.326 224.729 490.326 228.104C490.326 231.389 492.071 233.16 494.308 233.16ZM495.171 230.993C493.835 230.993 493.106 229.804 493.106 228.091C493.106 226.391 493.822 225.221 495.171 225.221C496.494 225.221 497.236 226.339 497.236 228.091C497.236 229.842 496.481 230.993 495.171 230.993ZM504.933 233.185C506.384 233.185 507.324 232.553 507.803 231.638H507.88V233H510.462V226.378C510.462 224.038 508.481 223.054 506.295 223.054C503.942 223.054 502.396 224.179 502.018 225.969L504.537 226.173C504.722 225.521 505.304 225.042 506.282 225.042C507.209 225.042 507.739 225.509 507.739 226.314V226.352C507.739 226.985 507.068 227.068 505.362 227.234C503.418 227.413 501.673 228.065 501.673 230.258C501.673 232.201 503.06 233.185 504.933 233.185ZM505.713 231.306C504.876 231.306 504.275 230.916 504.275 230.168C504.275 229.401 504.908 229.024 505.866 228.89C506.461 228.807 507.433 228.666 507.759 228.449V229.491C507.759 230.52 506.908 231.306 505.713 231.306ZM517.797 223.182H515.95V220.83H513.227V223.182H511.885V225.227H513.227V230.341C513.214 232.265 514.525 233.217 516.5 233.134C517.203 233.109 517.701 232.968 517.976 232.879L517.548 230.852C517.414 230.878 517.126 230.942 516.87 230.942C516.327 230.942 515.95 230.737 515.95 229.983V225.227H517.797V223.182ZM523.902 233.192C526.88 233.192 528.734 231.153 528.734 228.129C528.734 225.087 526.88 223.054 523.902 223.054C520.923 223.054 519.069 225.087 519.069 228.129C519.069 231.153 520.923 233.192 523.902 233.192ZM523.914 231.082C522.54 231.082 521.837 229.823 521.837 228.11C521.837 226.397 522.54 225.131 523.914 225.131C525.263 225.131 525.966 226.397 525.966 228.11C525.966 229.823 525.263 231.082 523.914 231.082ZM538.674 225.982C538.431 224.173 536.973 223.054 534.493 223.054C531.981 223.054 530.326 224.217 530.332 226.109C530.326 227.58 531.252 228.532 533.17 228.915L534.87 229.254C535.727 229.427 536.117 229.74 536.13 230.232C536.117 230.814 535.484 231.229 534.532 231.229C533.56 231.229 532.914 230.814 532.748 230.015L530.07 230.156C530.326 232.035 531.924 233.192 534.525 233.192C537.069 233.192 538.891 231.894 538.897 229.957C538.891 228.538 537.964 227.688 536.059 227.298L534.282 226.94C533.368 226.742 533.029 226.429 533.036 225.956C533.029 225.368 533.694 224.984 534.538 224.984C535.484 224.984 536.047 225.502 536.181 226.135L538.674 225.982ZM549.252 233.192C551.681 233.192 553.318 232.009 553.701 230.188L551.183 230.021C550.908 230.769 550.205 231.159 549.297 231.159C547.936 231.159 547.073 230.258 547.073 228.794V228.788H553.759V228.04C553.759 224.703 551.739 223.054 549.144 223.054C546.255 223.054 544.382 225.106 544.382 228.136C544.382 231.249 546.229 233.192 549.252 233.192ZM547.073 227.1C547.13 225.982 547.98 225.087 549.189 225.087C550.371 225.087 551.189 225.93 551.196 227.1H547.073ZM558.259 227.324C558.265 226.058 559.02 225.317 560.119 225.317C561.212 225.317 561.87 226.033 561.864 227.234V233H564.587V226.749C564.587 224.46 563.245 223.054 561.199 223.054C559.742 223.054 558.687 223.77 558.246 224.914H558.131V223.182H555.536V233H558.259V227.324ZM573.622 219.909H570.899V233H573.622V219.909ZM580.24 233.192C583.218 233.192 585.072 231.153 585.072 228.129C585.072 225.087 583.218 223.054 580.24 223.054C577.261 223.054 575.407 225.087 575.407 228.129C575.407 231.153 577.261 233.192 580.24 233.192ZM580.252 231.082C578.878 231.082 578.175 229.823 578.175 228.11C578.175 226.397 578.878 225.131 580.252 225.131C581.601 225.131 582.304 226.397 582.304 228.11C582.304 229.823 581.601 231.082 580.252 231.082ZM595.012 225.982C594.769 224.173 593.311 223.054 590.831 223.054C588.319 223.054 586.664 224.217 586.67 226.109C586.664 227.58 587.59 228.532 589.508 228.915L591.208 229.254C592.065 229.427 592.455 229.74 592.468 230.232C592.455 230.814 591.822 231.229 590.869 231.229C589.898 231.229 589.252 230.814 589.086 230.015L586.408 230.156C586.664 232.035 588.262 233.192 590.863 233.192C593.407 233.192 595.229 231.894 595.235 229.957C595.229 228.538 594.302 227.688 592.397 227.298L590.62 226.94C589.706 226.742 589.367 226.429 589.374 225.956C589.367 225.368 590.032 224.984 590.876 224.984C591.822 224.984 592.384 225.502 592.519 226.135L595.012 225.982ZM601.116 236.682H603.839V231.428H603.922C604.299 232.246 605.124 233.16 606.709 233.16C608.946 233.16 610.691 231.389 610.691 228.104C610.691 224.729 608.869 223.054 606.715 223.054C605.073 223.054 604.286 224.032 603.922 224.831H603.801V223.182H601.116V236.682ZM603.781 228.091C603.781 226.339 604.523 225.221 605.846 225.221C607.195 225.221 607.911 226.391 607.911 228.091C607.911 229.804 607.182 230.993 605.846 230.993C604.536 230.993 603.781 229.842 603.781 228.091ZM615.306 233.185C616.757 233.185 617.697 232.553 618.176 231.638H618.253V233H620.835V226.378C620.835 224.038 618.854 223.054 616.668 223.054C614.316 223.054 612.769 224.179 612.392 225.969L614.91 226.173C615.095 225.521 615.677 225.042 616.655 225.042C617.582 225.042 618.112 225.509 618.112 226.314V226.352C618.112 226.985 617.441 227.068 615.735 227.234C613.791 227.413 612.046 228.065 612.046 230.258C612.046 232.201 613.433 233.185 615.306 233.185ZM616.086 231.306C615.249 231.306 614.648 230.916 614.648 230.168C614.648 229.401 615.281 229.024 616.24 228.89C616.834 228.807 617.806 228.666 618.132 228.449V229.491C618.132 230.52 617.281 231.306 616.086 231.306ZM631.117 225.982C630.874 224.173 629.417 223.054 626.937 223.054C624.425 223.054 622.769 224.217 622.775 226.109C622.769 227.58 623.696 228.532 625.613 228.915L627.314 229.254C628.17 229.427 628.56 229.74 628.573 230.232C628.56 230.814 627.927 231.229 626.975 231.229C626.003 231.229 625.358 230.814 625.192 230.015L622.513 230.156C622.769 232.035 624.367 233.192 626.969 233.192C629.513 233.192 631.334 231.894 631.341 229.957C631.334 228.538 630.407 227.688 628.503 227.298L626.726 226.94C625.812 226.742 625.473 226.429 625.479 225.956C625.473 225.368 626.138 224.984 626.981 224.984C627.927 224.984 628.49 225.502 628.624 226.135L631.117 225.982ZM635.855 233.185C637.306 233.185 638.246 232.553 638.725 231.638H638.802V233H641.384V226.378C641.384 224.038 639.403 223.054 637.217 223.054C634.864 223.054 633.317 224.179 632.94 225.969L635.459 226.173C635.644 225.521 636.226 225.042 637.204 225.042C638.131 225.042 638.661 225.509 638.661 226.314V226.352C638.661 226.985 637.99 227.068 636.283 227.234C634.34 227.413 632.595 228.065 632.595 230.258C632.595 232.201 633.982 233.185 635.855 233.185ZM636.635 231.306C635.798 231.306 635.197 230.916 635.197 230.168C635.197 229.401 635.83 229.024 636.788 228.89C637.383 228.807 638.354 228.666 638.68 228.449V229.491C638.68 230.52 637.83 231.306 636.635 231.306ZM643.497 236.682H646.22V231.428H646.303C646.68 232.246 647.505 233.16 649.09 233.16C651.327 233.16 653.072 231.389 653.072 228.104C653.072 224.729 651.25 223.054 649.096 223.054C647.453 223.054 646.667 224.032 646.303 224.831H646.181V223.182H643.497V236.682ZM646.162 228.091C646.162 226.339 646.904 225.221 648.227 225.221C649.576 225.221 650.292 226.391 650.292 228.091C650.292 229.804 649.563 230.993 648.227 230.993C646.917 230.993 646.162 229.842 646.162 228.091ZM659.324 233.192C662.302 233.192 664.156 231.153 664.156 228.129C664.156 225.087 662.302 223.054 659.324 223.054C656.345 223.054 654.491 225.087 654.491 228.129C654.491 231.153 656.345 233.192 659.324 233.192ZM659.336 231.082C657.962 231.082 657.259 229.823 657.259 228.11C657.259 226.397 657.962 225.131 659.336 225.131C660.685 225.131 661.388 226.397 661.388 228.11C661.388 229.823 660.685 231.082 659.336 231.082ZM665.926 233H668.65V227.445C668.65 226.237 669.532 225.406 670.733 225.406C671.11 225.406 671.628 225.47 671.884 225.553V223.137C671.641 223.08 671.302 223.041 671.027 223.041C669.928 223.041 669.027 223.68 668.669 224.895H668.566V223.182H665.926V233ZM679.006 223.182H677.159V220.83H674.436V223.182H673.094V225.227H674.436V230.341C674.423 232.265 675.733 233.217 677.709 233.134C678.412 233.109 678.91 232.968 679.185 232.879L678.757 230.852C678.623 230.878 678.335 230.942 678.079 230.942C677.536 230.942 677.159 230.737 677.159 229.983V225.227H679.006V223.182ZM685.149 233.192C687.578 233.192 689.214 232.009 689.598 230.188L687.079 230.021C686.805 230.769 686.101 231.159 685.194 231.159C683.832 231.159 682.969 230.258 682.969 228.794V228.788H689.655V228.04C689.655 224.703 687.635 223.054 685.04 223.054C682.151 223.054 680.278 225.106 680.278 228.136C680.278 231.249 682.126 233.192 685.149 233.192ZM682.969 227.1C683.027 225.982 683.877 225.087 685.085 225.087C686.268 225.087 687.086 225.93 687.092 227.1H682.969ZM699.601 225.982C699.358 224.173 697.901 223.054 695.421 223.054C692.909 223.054 691.253 224.217 691.26 226.109C691.253 227.58 692.18 228.532 694.098 228.915L695.798 229.254C696.655 229.427 697.045 229.74 697.057 230.232C697.045 230.814 696.412 231.229 695.459 231.229C694.488 231.229 693.842 230.814 693.676 230.015L690.998 230.156C691.253 232.035 692.851 233.192 695.453 233.192C697.997 233.192 699.819 231.894 699.825 229.957C699.819 228.538 698.892 227.688 696.987 227.298L695.21 226.94C694.296 226.742 693.957 226.429 693.964 225.956C693.957 225.368 694.622 224.984 695.466 224.984C696.412 224.984 696.974 225.502 697.108 226.135L699.601 225.982ZM710.18 233.192C712.609 233.192 714.246 232.009 714.629 230.188L712.111 230.021C711.836 230.769 711.133 231.159 710.225 231.159C708.863 231.159 708.001 230.258 708.001 228.794V228.788H714.687V228.04C714.687 224.703 712.667 223.054 710.072 223.054C707.182 223.054 705.309 225.106 705.309 228.136C705.309 231.249 707.157 233.192 710.18 233.192ZM708.001 227.1C708.058 225.982 708.908 225.087 710.116 225.087C711.299 225.087 712.117 225.93 712.123 227.1H708.001ZM716.464 233H719.187V227.107C719.187 226.02 719.877 225.298 720.785 225.298C721.68 225.298 722.28 225.911 722.28 226.876V233H724.92V227.004C724.92 225.988 725.502 225.298 726.493 225.298C727.362 225.298 728.014 225.841 728.014 226.934V233H730.731V226.397C730.731 224.268 729.465 223.054 727.637 223.054C726.199 223.054 725.08 223.789 724.677 224.914H724.575C724.262 223.776 723.258 223.054 721.91 223.054C720.586 223.054 719.583 223.757 719.174 224.914H719.059V223.182H716.464V233ZM732.882 233H735.605V223.182H732.882V233ZM734.249 221.916C735.061 221.916 735.726 221.296 735.726 220.536C735.726 219.781 735.061 219.161 734.249 219.161C733.444 219.161 732.779 219.781 732.779 220.536C732.779 221.296 733.444 221.916 734.249 221.916ZM743.008 223.182H741.161V220.83H738.438V223.182H737.096V225.227H738.438V230.341C738.425 232.265 739.735 233.217 741.711 233.134C742.414 233.109 742.912 232.968 743.187 232.879L742.759 230.852C742.625 230.878 742.337 230.942 742.081 230.942C741.538 230.942 741.161 230.737 741.161 229.983V225.227H743.008V223.182ZM744.782 233H747.505V223.182H744.782V233ZM746.15 221.916C746.962 221.916 747.626 221.296 747.626 220.536C747.626 219.781 746.962 219.161 746.15 219.161C745.344 219.161 744.68 219.781 744.68 220.536C744.68 221.296 745.344 221.916 746.15 221.916ZM753.304 233.16C754.889 233.16 755.714 232.246 756.091 231.428H756.206V233H758.891V219.909H756.174V224.831H756.091C755.727 224.032 754.941 223.054 753.298 223.054C751.144 223.054 749.322 224.729 749.322 228.104C749.322 231.389 751.067 233.16 753.304 233.16ZM754.167 230.993C752.831 230.993 752.102 229.804 752.102 228.091C752.102 226.391 752.818 225.221 754.167 225.221C755.49 225.221 756.232 226.339 756.232 228.091C756.232 229.842 755.477 230.993 754.167 230.993ZM765.566 233.192C768.544 233.192 770.398 231.153 770.398 228.129C770.398 225.087 768.544 223.054 765.566 223.054C762.587 223.054 760.733 225.087 760.733 228.129C760.733 231.153 762.587 233.192 765.566 233.192ZM765.578 231.082C764.204 231.082 763.501 229.823 763.501 228.11C763.501 226.397 764.204 225.131 765.578 225.131C766.927 225.131 767.63 226.397 767.63 228.11C767.63 229.823 766.927 231.082 765.578 231.082ZM780.338 225.982C780.095 224.173 778.637 223.054 776.157 223.054C773.645 223.054 771.99 224.217 771.996 226.109C771.99 227.58 772.917 228.532 774.834 228.915L776.534 229.254C777.391 229.427 777.781 229.74 777.794 230.232C777.781 230.814 777.148 231.229 776.196 231.229C775.224 231.229 774.578 230.814 774.412 230.015L771.734 230.156C771.99 232.035 773.588 233.192 776.189 233.192C778.733 233.192 780.555 231.894 780.561 229.957C780.555 228.538 779.628 227.688 777.723 227.298L775.946 226.94C775.032 226.742 774.694 226.429 774.7 225.956C774.694 225.368 775.358 224.984 776.202 224.984C777.148 224.984 777.711 225.502 777.845 226.135L780.338 225.982ZM790.917 233.192C793.346 233.192 794.982 232.009 795.365 230.188L792.847 230.021C792.572 230.769 791.869 231.159 790.961 231.159C789.6 231.159 788.737 230.258 788.737 228.794V228.788H795.423V228.04C795.423 224.703 793.403 223.054 790.808 223.054C787.919 223.054 786.046 225.106 786.046 228.136C786.046 231.249 787.893 233.192 790.917 233.192ZM788.737 227.1C788.794 225.982 789.645 225.087 790.853 225.087C792.035 225.087 792.853 225.93 792.86 227.1H788.737ZM799.923 227.324C799.929 226.058 800.684 225.317 801.783 225.317C802.876 225.317 803.534 226.033 803.528 227.234V233H806.251V226.749C806.251 224.46 804.909 223.054 802.863 223.054C801.406 223.054 800.351 223.77 799.91 224.914H799.795V223.182H797.2V233H799.923V227.324ZM815.286 219.909H812.563V233H815.286V219.909ZM820.267 233.185C821.718 233.185 822.658 232.553 823.137 231.638H823.214V233H825.796V226.378C825.796 224.038 823.815 223.054 821.629 223.054C819.276 223.054 817.73 224.179 817.352 225.969L819.871 226.173C820.056 225.521 820.638 225.042 821.616 225.042C822.543 225.042 823.073 225.509 823.073 226.314V226.352C823.073 226.985 822.402 227.068 820.695 227.234C818.752 227.413 817.007 228.065 817.007 230.258C817.007 232.201 818.394 233.185 820.267 233.185ZM821.047 231.306C820.21 231.306 819.609 230.916 819.609 230.168C819.609 229.401 820.242 229.024 821.2 228.89C821.795 228.807 822.767 228.666 823.093 228.449V229.491C823.093 230.52 822.242 231.306 821.047 231.306ZM840.212 219.909V228.174C840.212 229.67 839.164 230.75 837.553 230.75C835.949 230.75 834.894 229.67 834.894 228.174V219.909H832.126V228.411C832.126 231.274 834.287 233.185 837.553 233.185C840.806 233.185 842.98 231.274 842.98 228.411V219.909H840.212ZM845.257 233H854.104V230.718H848.025V227.592H853.624V225.31H848.025V222.191H854.078V219.909H845.257V233Z" fill="black"/>
</svg>
