<svg width="1024" height="363" viewBox="0 0 1024 363" fill="none" xmlns="http://www.w3.org/2000/svg">
<rect width="1024" height="363" rx="15" fill="white"/>
<path d="M298.678 234.456L280.546 216.325C274.086 209.865 283.855 200.076 290.324 206.546L308.456 224.678C314.916 231.138 305.146 240.925 298.678 234.456Z" fill="#131AC1"/>
<path d="M323.684 187.915H298.042C288.905 187.915 288.895 174.086 298.042 174.086H323.684C332.821 174.085 332.831 187.915 323.684 187.915Z" fill="#131AC1"/>
<path d="M280.546 145.675L298.678 127.544C305.138 121.082 314.924 130.855 308.456 137.322L290.324 155.454C283.864 161.915 274.078 152.143 280.546 145.675Z" fill="#131AC1"/>
<path d="M298.802 249.59C291.969 242.756 291.969 231.636 298.802 224.803C305.636 217.969 316.756 217.969 323.589 224.803C330.423 231.637 330.423 242.756 323.589 249.59C316.756 256.422 305.637 256.424 298.802 249.59Z" fill="#3D45FF"/>
<path d="M334.473 198.527C324.808 198.527 316.946 190.665 316.946 181C316.946 171.335 324.808 163.473 334.473 163.473C344.137 163.473 352 171.335 352 181C352 190.665 344.137 198.527 334.473 198.527Z" fill="#3D45FF"/>
<path d="M298.802 137.197C291.969 130.363 291.969 119.244 298.802 112.41C305.636 105.577 316.756 105.576 323.589 112.41C330.423 119.244 330.423 130.363 323.589 137.197C316.756 144.031 305.636 144.031 298.802 137.197Z" fill="#3D45FF"/>
<path d="M255 144.872C251.181 144.872 248.085 141.776 248.085 137.958V112.316C248.085 103.179 261.914 103.169 261.914 112.316V137.959C261.915 141.777 258.819 144.872 255 144.872Z" fill="#3D45FF"/>
<path d="M255 105.401V144.873C258.819 144.873 261.915 141.777 261.915 137.958V112.315C261.915 108.496 258.819 105.401 255 105.401Z" fill="#131AC1"/>
<path d="M248.085 249.684V224.041C248.085 214.904 261.914 214.895 261.914 224.041V249.684C261.915 258.821 248.085 258.831 248.085 249.684Z" fill="#3D45FF"/>
<path d="M255 217.127V256.599C258.819 256.599 261.915 253.503 261.915 249.684V224.041C261.915 220.223 258.819 217.127 255 217.127Z" fill="#131AC1"/>
<path d="M219.675 155.454L201.543 137.322C195.084 130.862 204.853 121.074 211.322 127.543L229.454 145.675C235.914 152.135 226.144 161.923 219.675 155.454Z" fill="#3D45FF"/>
<path d="M211.959 187.915H186.316C177.179 187.915 177.169 174.086 186.316 174.086H211.959C221.095 174.085 221.105 187.915 211.959 187.915Z" fill="#3D45FF"/>
<path d="M201.544 224.677L219.675 206.545C226.136 200.084 235.921 209.857 229.454 216.324L211.322 234.455C204.915 240.864 194.994 231.228 201.544 224.677Z" fill="#3D45FF"/>
<path d="M255 119.054C245.336 119.054 237.473 111.191 237.473 101.527C237.473 91.8623 245.335 84 255 84C264.664 84 272.527 91.8623 272.527 101.527C272.527 111.191 264.664 119.054 255 119.054Z" fill="#262DC9"/>
<path d="M255 278C245.336 278 237.473 270.138 237.473 260.473C237.473 250.809 245.336 242.946 255 242.946C264.664 242.946 272.527 250.809 272.527 260.473C272.527 270.137 264.664 278 255 278Z" fill="#262DC9"/>
<path d="M255 242.946V278C264.664 278 272.527 270.138 272.527 260.473C272.527 250.809 264.664 242.946 255 242.946Z" fill="#3D45FF"/>
<path d="M186.41 137.197C179.56 130.348 179.56 119.261 186.41 112.41C193.244 105.578 204.364 105.576 211.197 112.41H211.198C218.031 119.244 218.031 130.363 211.198 137.197C204.364 144.031 193.245 144.032 186.41 137.197Z" fill="#262DC9"/>
<path d="M175.527 198.527C165.863 198.527 158 190.665 158 181C158 171.336 165.863 163.473 175.527 163.473C185.191 163.473 193.053 171.335 193.053 181C193.053 190.665 185.191 198.527 175.527 198.527Z" fill="#262DC9"/>
<path d="M186.41 249.59C179.561 242.74 179.559 231.653 186.41 224.803C193.244 217.969 204.364 217.969 211.197 224.803C218.031 231.637 218.031 242.756 211.198 249.59C204.365 256.422 193.245 256.424 186.41 249.59Z" fill="#262DC9"/>
<path d="M255 230.956C227.454 230.956 205.044 208.546 205.044 181C205.044 153.454 227.454 131.044 255 131.044C282.546 131.044 304.956 153.454 304.956 181C304.956 208.546 282.546 230.956 255 230.956Z" fill="#262DC9"/>
<path d="M255 84V119.054C264.664 119.054 272.527 111.191 272.527 101.527C272.527 91.8627 264.664 84 255 84Z" fill="#3D45FF"/>
<path d="M255 131.044V230.957C282.546 230.957 304.956 208.546 304.956 181.001C304.956 153.455 282.546 131.044 255 131.044Z" fill="#3D45FF"/>
<path d="M255 203.335C242.684 203.335 232.665 193.316 232.665 181C232.665 168.684 242.684 158.665 255 158.665C267.316 158.665 277.335 168.684 277.335 181C277.335 193.316 267.316 203.335 255 203.335Z" fill="#3D45FF"/>
<path d="M255 158.665V203.335C267.316 203.335 277.335 193.316 277.335 181C277.335 168.684 267.316 158.665 255 158.665Z" fill="#131AC1"/>
<path d="M445.67 159.625C443.727 143.5 431.523 134.227 415.364 134.227C396.92 134.227 382.841 147.25 382.841 170.091C382.841 192.864 396.682 205.955 415.364 205.955C433.261 205.955 444.068 194.057 445.67 181.205L430.739 181.136C429.341 188.602 423.477 192.898 415.602 192.898C405 192.898 397.807 185.023 397.807 170.091C397.807 155.568 404.898 147.284 415.705 147.284C423.784 147.284 429.614 151.955 430.739 159.625H445.67ZM479.642 206.023C495.528 206.023 505.415 195.148 505.415 179.023C505.415 162.795 495.528 151.955 479.642 151.955C463.756 151.955 453.869 162.795 453.869 179.023C453.869 195.148 463.756 206.023 479.642 206.023ZM479.71 194.773C472.381 194.773 468.631 188.057 468.631 178.92C468.631 169.784 472.381 163.034 479.71 163.034C486.903 163.034 490.653 169.784 490.653 178.92C490.653 188.057 486.903 194.773 479.71 194.773ZM561.895 152.636H546.52L535.679 190.102H535.134L524.259 152.636H508.918L527.224 205H543.588L561.895 152.636ZM631.202 159.625C629.259 143.5 617.054 134.227 600.895 134.227C582.452 134.227 568.372 147.25 568.372 170.091C568.372 192.864 582.213 205.955 600.895 205.955C618.793 205.955 629.599 194.057 631.202 181.205L616.27 181.136C614.872 188.602 609.009 192.898 601.134 192.898C590.531 192.898 583.338 185.023 583.338 170.091C583.338 155.568 590.429 147.284 601.236 147.284C609.315 147.284 615.145 151.955 616.27 159.625H631.202ZM656.037 174.727C656.071 167.977 660.196 164.023 666.128 164.023C672.026 164.023 675.503 167.807 675.469 174.25V205H689.991V171.659C690.026 159.386 682.798 151.955 671.889 151.955C663.946 151.955 658.628 155.705 656.241 161.875H655.628V135.182H641.514V205H656.037V174.727ZM725.284 206.023C738.239 206.023 746.966 199.716 749.011 190L735.58 189.114C734.114 193.102 730.364 195.182 725.523 195.182C718.261 195.182 713.659 190.375 713.659 182.568V182.534H749.318V178.545C749.318 160.75 738.545 151.955 724.705 151.955C709.295 151.955 699.307 162.898 699.307 179.057C699.307 195.659 709.159 206.023 725.284 206.023ZM713.659 173.534C713.966 167.568 718.5 162.795 724.943 162.795C731.25 162.795 735.614 167.295 735.648 173.534H713.659ZM782.455 206.023C796.398 206.023 805.159 197.841 805.841 185.807H792.136C791.284 191.398 787.602 194.534 782.625 194.534C775.841 194.534 771.443 188.841 771.443 178.818C771.443 168.932 775.875 163.273 782.625 163.273C787.943 163.273 791.352 166.784 792.136 172H805.841C805.227 159.898 796.057 151.955 782.386 151.955C766.5 151.955 756.682 162.966 756.682 179.023C756.682 194.943 766.33 206.023 782.455 206.023ZM815.139 205H829.662V188.364L833.582 183.898L847.866 205H864.878L844.457 175.307L863.889 152.636H847.219L830.446 172.511H829.662V135.182H815.139V205Z" fill="black"/>
<path d="M437.503 219.909H434.428L438.947 233H442.514L447.027 219.909H443.959L440.788 229.855H440.667L437.503 219.909ZM451.901 233.192C454.33 233.192 455.966 232.009 456.35 230.188L453.831 230.021C453.556 230.769 452.853 231.159 451.946 231.159C450.584 231.159 449.721 230.258 449.721 228.794V228.788H456.407V228.04C456.407 224.703 454.387 223.054 451.792 223.054C448.903 223.054 447.03 225.106 447.03 228.136C447.03 231.249 448.877 233.192 451.901 233.192ZM449.721 227.1C449.779 225.982 450.629 225.087 451.837 225.087C453.02 225.087 453.838 225.93 453.844 227.1H449.721ZM458.184 233H460.907V227.445C460.907 226.237 461.789 225.406 462.991 225.406C463.368 225.406 463.886 225.47 464.142 225.553V223.137C463.899 223.08 463.56 223.041 463.285 223.041C462.186 223.041 461.284 223.68 460.926 224.895H460.824V223.182H458.184V233ZM465.55 233H468.273V223.182H465.55V233ZM466.917 221.916C467.729 221.916 468.394 221.296 468.394 220.536C468.394 219.781 467.729 219.161 466.917 219.161C466.112 219.161 465.447 219.781 465.447 220.536C465.447 221.296 466.112 221.916 466.917 221.916ZM475.734 223.182H473.784V222.523C473.784 221.859 474.053 221.469 474.852 221.469C475.178 221.469 475.51 221.539 475.727 221.609L476.207 219.564C475.868 219.462 475.12 219.295 474.283 219.295C472.435 219.295 471.061 220.337 471.061 222.472V223.182H469.674V225.227H471.061V233H473.784V225.227H475.734V223.182ZM479.078 236.682C481.105 236.682 482.178 235.646 482.735 234.061L486.551 223.195L483.668 223.182L481.616 230.392H481.514L479.481 223.182H476.617L480.139 233.281L479.98 233.697C479.622 234.617 478.938 234.662 477.979 234.368L477.365 236.401C477.755 236.567 478.388 236.682 479.078 236.682ZM493.791 236.682C495.817 236.682 496.891 235.646 497.447 234.061L501.263 223.195L498.381 223.182L496.329 230.392H496.227L494.194 223.182H491.33L494.852 233.281L494.692 233.697C494.335 234.617 493.651 234.662 492.692 234.368L492.078 236.401C492.468 236.567 493.101 236.682 493.791 236.682ZM506.759 233.192C509.738 233.192 511.591 231.153 511.591 228.129C511.591 225.087 509.738 223.054 506.759 223.054C503.78 223.054 501.927 225.087 501.927 228.129C501.927 231.153 503.78 233.192 506.759 233.192ZM506.772 231.082C505.398 231.082 504.694 229.823 504.694 228.11C504.694 226.397 505.398 225.131 506.772 225.131C508.121 225.131 508.824 226.397 508.824 228.11C508.824 229.823 508.121 231.082 506.772 231.082ZM519.658 228.82C519.665 230.136 518.763 230.827 517.785 230.827C516.756 230.827 516.091 230.104 516.085 228.947V223.182H513.362V229.433C513.368 231.728 514.711 233.128 516.686 233.128C518.162 233.128 519.224 232.367 519.665 231.217H519.767V233H522.381V223.182H519.658V228.82ZM524.559 233H527.282V227.445C527.282 226.237 528.164 225.406 529.366 225.406C529.743 225.406 530.261 225.47 530.517 225.553V223.137C530.274 223.08 529.935 223.041 529.66 223.041C528.561 223.041 527.659 223.68 527.301 224.895H527.199V223.182H524.559V233ZM536.142 233H544.988V230.718H538.909V227.592H544.509V225.31H538.909V222.191H544.963V219.909H536.142V233ZM555.249 219.909V228.174C555.249 229.67 554.201 230.75 552.59 230.75C550.986 230.75 549.931 229.67 549.931 228.174V219.909H547.163V228.411C547.163 231.274 549.324 233.185 552.59 233.185C555.844 233.185 558.017 231.274 558.017 228.411V219.909H555.249ZM564.409 236.682H567.132V231.428H567.215C567.592 232.246 568.417 233.16 570.002 233.16C572.239 233.16 573.984 231.389 573.984 228.104C573.984 224.729 572.162 223.054 570.008 223.054C568.366 223.054 567.579 224.032 567.215 224.831H567.094V223.182H564.409V236.682ZM567.074 228.091C567.074 226.339 567.816 225.221 569.139 225.221C570.488 225.221 571.204 226.391 571.204 228.091C571.204 229.804 570.475 230.993 569.139 230.993C567.829 230.993 567.074 229.842 567.074 228.091ZM578.599 233.185C580.05 233.185 580.99 232.553 581.469 231.638H581.546V233H584.128V226.378C584.128 224.038 582.147 223.054 579.961 223.054C577.608 223.054 576.062 224.179 575.684 225.969L578.203 226.173C578.388 225.521 578.97 225.042 579.948 225.042C580.875 225.042 581.405 225.509 581.405 226.314V226.352C581.405 226.985 580.734 227.068 579.028 227.234C577.084 227.413 575.339 228.065 575.339 230.258C575.339 232.201 576.726 233.185 578.599 233.185ZM579.379 231.306C578.542 231.306 577.941 230.916 577.941 230.168C577.941 229.401 578.574 229.024 579.532 228.89C580.127 228.807 581.099 228.666 581.425 228.449V229.491C581.425 230.52 580.574 231.306 579.379 231.306ZM594.41 225.982C594.167 224.173 592.71 223.054 590.23 223.054C587.718 223.054 586.062 224.217 586.068 226.109C586.062 227.58 586.989 228.532 588.906 228.915L590.607 229.254C591.463 229.427 591.853 229.74 591.866 230.232C591.853 230.814 591.22 231.229 590.268 231.229C589.296 231.229 588.651 230.814 588.485 230.015L585.806 230.156C586.062 232.035 587.66 233.192 590.262 233.192C592.806 233.192 594.627 231.894 594.634 229.957C594.627 228.538 593.7 227.688 591.796 227.298L590.019 226.94C589.105 226.742 588.766 226.429 588.772 225.956C588.766 225.368 589.431 224.984 590.274 224.984C591.22 224.984 591.783 225.502 591.917 226.135L594.41 225.982ZM604.517 225.982C604.275 224.173 602.817 223.054 600.337 223.054C597.825 223.054 596.169 224.217 596.176 226.109C596.169 227.58 597.096 228.532 599.014 228.915L600.714 229.254C601.571 229.427 601.961 229.74 601.973 230.232C601.961 230.814 601.328 231.229 600.375 231.229C599.404 231.229 598.758 230.814 598.592 230.015L595.914 230.156C596.169 232.035 597.767 233.192 600.369 233.192C602.913 233.192 604.735 231.894 604.741 229.957C604.735 228.538 603.808 227.688 601.903 227.298L600.126 226.94C599.212 226.742 598.873 226.429 598.88 225.956C598.873 225.368 599.538 224.984 600.382 224.984C601.328 224.984 601.89 225.502 602.025 226.135L604.517 225.982ZM606.456 236.682H609.179V231.428H609.262C609.639 232.246 610.464 233.16 612.049 233.16C614.286 233.16 616.031 231.389 616.031 228.104C616.031 224.729 614.209 223.054 612.055 223.054C610.412 223.054 609.626 224.032 609.262 224.831H609.14V223.182H606.456V236.682ZM609.121 228.091C609.121 226.339 609.863 225.221 611.186 225.221C612.535 225.221 613.251 226.391 613.251 228.091C613.251 229.804 612.522 230.993 611.186 230.993C609.876 230.993 609.121 229.842 609.121 228.091ZM622.282 233.192C625.261 233.192 627.115 231.153 627.115 228.129C627.115 225.087 625.261 223.054 622.282 223.054C619.304 223.054 617.45 225.087 617.45 228.129C617.45 231.153 619.304 233.192 622.282 233.192ZM622.295 231.082C620.921 231.082 620.218 229.823 620.218 228.11C620.218 226.397 620.921 225.131 622.295 225.131C623.644 225.131 624.347 226.397 624.347 228.11C624.347 229.823 623.644 231.082 622.295 231.082ZM628.885 233H631.608V227.445C631.608 226.237 632.491 225.406 633.692 225.406C634.069 225.406 634.587 225.47 634.843 225.553V223.137C634.6 223.08 634.261 223.041 633.986 223.041C632.887 223.041 631.986 223.68 631.628 224.895H631.525V223.182H628.885V233ZM641.965 223.182H640.118V220.83H637.395V223.182H636.053V225.227H637.395V230.341C637.382 232.265 638.692 233.217 640.668 233.134C641.371 233.109 641.869 232.968 642.144 232.879L641.716 230.852C641.582 230.878 641.294 230.942 641.038 230.942C640.495 230.942 640.118 230.737 640.118 229.983V225.227H641.965V223.182ZM657.058 223.182H654.176L652.143 230.207H652.041L650.002 223.182H647.125L650.558 233H653.626L657.058 223.182ZM660.97 233.185C662.421 233.185 663.361 232.553 663.84 231.638H663.917V233H666.499V226.378C666.499 224.038 664.518 223.054 662.332 223.054C659.98 223.054 658.433 224.179 658.056 225.969L660.574 226.173C660.759 225.521 661.341 225.042 662.319 225.042C663.246 225.042 663.776 225.509 663.776 226.314V226.352C663.776 226.985 663.105 227.068 661.399 227.234C659.455 227.413 657.71 228.065 657.71 230.258C657.71 232.201 659.097 233.185 660.97 233.185ZM661.75 231.306C660.913 231.306 660.312 230.916 660.312 230.168C660.312 229.401 660.945 229.024 661.904 228.89C662.498 228.807 663.47 228.666 663.796 228.449V229.491C663.796 230.52 662.945 231.306 661.75 231.306ZM673.048 233.192C675.662 233.192 677.305 231.658 677.433 229.401H674.863C674.704 230.45 674.013 231.038 673.08 231.038C671.808 231.038 670.983 229.97 670.983 228.091C670.983 226.237 671.814 225.176 673.08 225.176C674.077 225.176 674.716 225.835 674.863 226.812H677.433C677.318 224.543 675.599 223.054 673.035 223.054C670.057 223.054 668.216 225.119 668.216 228.129C668.216 231.114 670.025 233.192 673.048 233.192ZM683.613 233.192C686.227 233.192 687.87 231.658 687.998 229.401H685.428C685.268 230.45 684.578 231.038 683.645 231.038C682.373 231.038 681.548 229.97 681.548 228.091C681.548 226.237 682.379 225.176 683.645 225.176C684.642 225.176 685.281 225.835 685.428 226.812H687.998C687.882 224.543 686.163 223.054 683.6 223.054C680.621 223.054 678.78 225.119 678.78 228.129C678.78 231.114 680.589 233.192 683.613 233.192ZM689.741 233H692.464V223.182H689.741V233ZM691.109 221.916C691.921 221.916 692.585 221.296 692.585 220.536C692.585 219.781 691.921 219.161 691.109 219.161C690.303 219.161 689.639 219.781 689.639 220.536C689.639 221.296 690.303 221.916 691.109 221.916ZM697.368 227.324C697.375 226.058 698.129 225.317 699.228 225.317C700.321 225.317 700.98 226.033 700.973 227.234V233H703.696V226.749C703.696 224.46 702.354 223.054 700.309 223.054C698.851 223.054 697.797 223.77 697.355 224.914H697.24V223.182H694.645V233H697.368V227.324ZM708.642 233.185C710.093 233.185 711.033 232.553 711.512 231.638H711.589V233H714.171V226.378C714.171 224.038 712.19 223.054 710.004 223.054C707.651 223.054 706.105 224.179 705.727 225.969L708.246 226.173C708.431 225.521 709.013 225.042 709.991 225.042C710.918 225.042 711.448 225.509 711.448 226.314V226.352C711.448 226.985 710.777 227.068 709.07 227.234C707.127 227.413 705.382 228.065 705.382 230.258C705.382 232.201 706.769 233.185 708.642 233.185ZM709.422 231.306C708.585 231.306 707.984 230.916 707.984 230.168C707.984 229.401 708.617 229.024 709.575 228.89C710.17 228.807 711.142 228.666 711.468 228.449V229.491C711.468 230.52 710.617 231.306 709.422 231.306ZM721.506 223.182H719.659V220.83H716.936V223.182H715.594V225.227H716.936V230.341C716.923 232.265 718.233 233.217 720.209 233.134C720.912 233.109 721.41 232.968 721.685 232.879L721.257 230.852C721.123 230.878 720.835 230.942 720.579 230.942C720.036 230.942 719.659 230.737 719.659 229.983V225.227H721.506V223.182ZM723.28 233H726.003V223.182H723.28V233ZM724.648 221.916C725.46 221.916 726.124 221.296 726.124 220.536C726.124 219.781 725.46 219.161 724.648 219.161C723.843 219.161 723.178 219.781 723.178 220.536C723.178 221.296 723.843 221.916 724.648 221.916ZM732.62 233.192C735.599 233.192 737.453 231.153 737.453 228.129C737.453 225.087 735.599 223.054 732.62 223.054C729.642 223.054 727.788 225.087 727.788 228.129C727.788 231.153 729.642 233.192 732.62 233.192ZM732.633 231.082C731.259 231.082 730.556 229.823 730.556 228.11C730.556 226.397 731.259 225.131 732.633 225.131C733.982 225.131 734.685 226.397 734.685 228.11C734.685 229.823 733.982 231.082 732.633 231.082ZM741.946 227.324C741.953 226.058 742.707 225.317 743.806 225.317C744.9 225.317 745.558 226.033 745.551 227.234V233H748.275V226.749C748.275 224.46 746.932 223.054 744.887 223.054C743.429 223.054 742.375 223.77 741.934 224.914H741.819V223.182H739.223V233H741.946V227.324ZM762.756 225.982C762.513 224.173 761.055 223.054 758.575 223.054C756.063 223.054 754.408 224.217 754.414 226.109C754.408 227.58 755.335 228.532 757.252 228.915L758.952 229.254C759.809 229.427 760.199 229.74 760.212 230.232C760.199 230.814 759.566 231.229 758.614 231.229C757.642 231.229 756.996 230.814 756.83 230.015L754.152 230.156C754.408 232.035 756.006 233.192 758.607 233.192C761.151 233.192 762.973 231.894 762.979 229.957C762.973 228.538 762.046 227.688 760.141 227.298L758.364 226.94C757.45 226.742 757.112 226.429 757.118 225.956C757.112 225.368 757.776 224.984 758.62 224.984C759.566 224.984 760.129 225.502 760.263 226.135L762.756 225.982ZM769.916 223.182H768.069V220.83H765.346V223.182H764.004V225.227H765.346V230.341C765.333 232.265 766.644 233.217 768.619 233.134C769.322 233.109 769.82 232.968 770.095 232.879L769.667 230.852C769.533 230.878 769.245 230.942 768.99 230.942C768.446 230.942 768.069 230.737 768.069 229.983V225.227H769.916V223.182ZM774.49 233.185C775.941 233.185 776.881 232.553 777.36 231.638H777.437V233H780.019V226.378C780.019 224.038 778.037 223.054 775.851 223.054C773.499 223.054 771.952 224.179 771.575 225.969L774.094 226.173C774.279 225.521 774.861 225.042 775.839 225.042C776.765 225.042 777.296 225.509 777.296 226.314V226.352C777.296 226.985 776.625 227.068 774.918 227.234C772.975 227.413 771.23 228.065 771.23 230.258C771.23 232.201 772.617 233.185 774.49 233.185ZM775.27 231.306C774.432 231.306 773.831 230.916 773.831 230.168C773.831 229.401 774.464 229.024 775.423 228.89C776.018 228.807 776.989 228.666 777.315 228.449V229.491C777.315 230.52 776.465 231.306 775.27 231.306ZM787.354 223.182H785.507V220.83H782.784V223.182H781.441V225.227H782.784V230.341C782.771 232.265 784.081 233.217 786.056 233.134C786.759 233.109 787.258 232.968 787.533 232.879L787.105 230.852C786.97 230.878 786.683 230.942 786.427 230.942C785.884 230.942 785.507 230.737 785.507 229.983V225.227H787.354V223.182ZM795.424 228.82C795.43 230.136 794.529 230.827 793.551 230.827C792.522 230.827 791.857 230.104 791.851 228.947V223.182H789.128V229.433C789.134 231.728 790.476 233.128 792.452 233.128C793.928 233.128 794.989 232.367 795.43 231.217H795.532V233H798.147V223.182H795.424V228.82ZM808.494 225.982C808.251 224.173 806.794 223.054 804.314 223.054C801.801 223.054 800.146 224.217 800.152 226.109C800.146 227.58 801.073 228.532 802.99 228.915L804.691 229.254C805.547 229.427 805.937 229.74 805.95 230.232C805.937 230.814 805.304 231.229 804.352 231.229C803.38 231.229 802.735 230.814 802.569 230.015L799.89 230.156C800.146 232.035 801.744 233.192 804.346 233.192C806.89 233.192 808.711 231.894 808.718 229.957C808.711 228.538 807.784 227.688 805.88 227.298L804.103 226.94C803.189 226.742 802.85 226.429 802.856 225.956C802.85 225.368 803.515 224.984 804.358 224.984C805.304 224.984 805.867 225.502 806.001 226.135L808.494 225.982Z" fill="black"/>
</svg>
