<svg width="133" height="37" viewBox="0 0 133 37" fill="none" xmlns="http://www.w3.org/2000/svg">
<path d="M26.8303 28.6953L23.3722 25.2371C22.1402 24.0052 24.0033 22.1382 25.2371 23.3722L28.6952 26.8304C29.9274 28.0623 28.0639 29.929 26.8303 28.6953Z" fill="#131AC1"/>
<path d="M31.5996 19.8188H26.7089C24.9663 19.8188 24.9645 17.1813 26.7089 17.1813H31.5996C33.3422 17.1812 33.344 19.8188 31.5996 19.8188Z" fill="#131AC1"/>
<path d="M23.3722 11.7628L26.8303 8.30466C28.0624 7.07239 29.9287 8.93619 28.6952 10.1696L25.2371 13.6278C24.0049 14.8601 22.1387 12.9963 23.3722 11.7628Z" fill="#131AC1"/>
<path d="M26.854 31.5816C25.5507 30.2782 25.5507 28.1575 26.854 26.8542C28.1574 25.5508 30.2781 25.5508 31.5814 26.8542C32.8848 28.1575 32.8848 30.2782 31.5814 31.5816C30.2782 32.8847 28.1575 32.8849 26.854 31.5816Z" fill="#3D45FF"/>
<path d="M33.6572 21.8427C31.814 21.8427 30.3145 20.3432 30.3145 18.5C30.3145 16.6567 31.814 15.1572 33.6572 15.1572C35.5004 15.1572 37 16.6567 37 18.5C37 20.3432 35.5004 21.8427 33.6572 21.8427Z" fill="#3D45FF"/>
<path d="M26.854 10.1459C25.5507 8.84247 25.5507 6.72184 26.854 5.41845C28.1574 4.11514 30.2781 4.115 31.5814 5.41845C32.8848 6.72184 32.8848 8.84247 31.5814 10.1459C30.2782 11.4492 28.1574 11.4493 26.854 10.1459Z" fill="#3D45FF"/>
<path d="M18.5 11.6097C17.7717 11.6097 17.1812 11.0192 17.1812 10.2909V5.40041C17.1812 3.6578 19.8187 3.65599 19.8187 5.40041V10.2911C19.8188 11.0193 19.2283 11.6097 18.5 11.6097Z" fill="#3D45FF"/>
<path d="M18.5 4.0816V11.6097C19.2283 11.6097 19.8188 11.0192 19.8188 10.291V5.40038C19.8188 4.67201 19.2283 4.0816 18.5 4.0816Z" fill="#131AC1"/>
<path d="M17.1812 31.5996V26.7089C17.1812 24.9663 19.8187 24.9645 19.8187 26.7089V31.5996C19.8188 33.3422 17.1812 33.344 17.1812 31.5996Z" fill="#3D45FF"/>
<path d="M18.5 25.3903V32.9184C19.2283 32.9184 19.8188 32.3279 19.8188 31.5996V26.709C19.8188 25.9807 19.2283 25.3903 18.5 25.3903Z" fill="#131AC1"/>
<path d="M11.7628 13.6279L8.30468 10.1697C7.07269 8.93768 8.93585 7.07084 10.1696 8.30471L13.6278 11.7628C14.8599 12.9949 12.9964 14.8616 11.7628 13.6279Z" fill="#3D45FF"/>
<path d="M10.2911 19.8188H5.40041C3.6578 19.8188 3.65599 17.1813 5.40041 17.1813H10.2911C12.0336 17.1813 12.0354 19.8188 10.2911 19.8188Z" fill="#3D45FF"/>
<path d="M8.30469 26.8303L11.7628 23.3721C12.9949 22.1397 14.8613 24.0036 13.6278 25.237L10.1697 28.6952C8.94764 29.9173 7.05551 28.0795 8.30469 26.8303Z" fill="#3D45FF"/>
<path d="M18.5 6.68558C16.6568 6.68558 15.1572 5.186 15.1572 3.34279C15.1572 1.49951 16.6567 0 18.5 0C20.3432 0 21.8428 1.49951 21.8428 3.34279C21.8428 5.18593 20.3432 6.68558 18.5 6.68558Z" fill="#262DC9"/>
<path d="M18.5 37C16.6568 37 15.1572 35.5005 15.1572 33.6572C15.1572 31.814 16.6568 30.3144 18.5 30.3144C20.3432 30.3144 21.8428 31.814 21.8428 33.6572C21.8428 35.5004 20.3432 37 18.5 37Z" fill="#262DC9"/>
<path d="M18.5 30.3144V37C20.3432 37 21.8428 35.5005 21.8428 33.6572C21.8428 31.8141 20.3432 30.3144 18.5 30.3144Z" fill="#3D45FF"/>
<path d="M5.41847 10.1459C4.11205 8.83955 4.1119 6.72506 5.41847 5.4185C6.72178 4.11533 8.84256 4.11511 10.1459 5.4185H10.1459C11.4492 6.72188 11.4492 8.84251 10.1459 10.1459C8.8427 11.4492 6.72192 11.4493 5.41847 10.1459Z" fill="#262DC9"/>
<path d="M3.34279 21.8427C1.49958 21.8427 0 20.3432 0 18.5C0 16.6568 1.49958 15.1572 3.34279 15.1572C5.186 15.1572 6.68544 16.6567 6.68544 18.5C6.68544 20.3433 5.18593 21.8427 3.34279 21.8427Z" fill="#262DC9"/>
<path d="M5.41849 31.5816C4.11208 30.2752 4.11186 28.1606 5.41849 26.8542C6.72181 25.5508 8.84259 25.5508 10.1459 26.8542C11.4492 28.1575 11.4492 30.2782 10.146 31.5816C8.8428 32.8847 6.72195 32.8849 5.41849 31.5816Z" fill="#262DC9"/>
<path d="M18.5 28.0277C13.2464 28.0277 8.97229 23.7536 8.97229 18.5C8.97229 13.2464 13.2464 8.97229 18.5 8.97229C23.7536 8.97229 28.0277 13.2464 28.0277 18.5C28.0277 23.7536 23.7536 28.0277 18.5 28.0277Z" fill="#262DC9"/>
<path d="M18.5 0V6.68558C20.3432 6.68558 21.8428 5.186 21.8428 3.34279C21.8428 1.49958 20.3432 0 18.5 0Z" fill="#3D45FF"/>
<path d="M18.5 8.97223V28.0278C23.7536 28.0278 28.0277 23.7537 28.0277 18.5001C28.0277 13.2465 23.7536 8.97223 18.5 8.97223Z" fill="#3D45FF"/>
<path d="M18.5 22.7599C16.1511 22.7599 14.2401 20.8489 14.2401 18.5C14.2401 16.1512 16.1511 14.2402 18.5 14.2402C20.8488 14.2402 22.7598 16.1512 22.7598 18.5C22.7598 20.8489 20.8488 22.7599 18.5 22.7599Z" fill="#3D45FF"/>
<path d="M18.5 14.2402V22.7599C20.8488 22.7599 22.7598 20.8489 22.7598 18.5C22.7598 16.1512 20.8488 14.2402 18.5 14.2402Z" fill="#131AC1"/>
<path d="M53.6882 15.4922C53.3239 12.4688 51.0355 10.7301 48.0057 10.7301C44.5476 10.7301 41.9077 13.1719 41.9077 17.4545C41.9077 21.7244 44.5028 24.179 48.0057 24.179C51.3615 24.179 53.3878 21.9482 53.6882 19.5384L50.8885 19.5256C50.6264 20.9254 49.527 21.7308 48.0504 21.7308C46.0625 21.7308 44.7138 20.2543 44.7138 17.4545C44.7138 14.7315 46.0433 13.1783 48.0696 13.1783C49.5845 13.1783 50.6776 14.054 50.8885 15.4922H53.6882ZM60.0579 24.1918C63.0366 24.1918 64.8903 22.1527 64.8903 19.1293C64.8903 16.0866 63.0366 14.054 60.0579 14.054C57.0792 14.054 55.2255 16.0866 55.2255 19.1293C55.2255 22.1527 57.0792 24.1918 60.0579 24.1918ZM60.0707 22.0824C58.6964 22.0824 57.9933 20.8232 57.9933 19.1101C57.9933 17.397 58.6964 16.1314 60.0707 16.1314C61.4194 16.1314 62.1225 17.397 62.1225 19.1101C62.1225 20.8232 61.4194 22.0824 60.0707 22.0824ZM75.4803 14.1818H72.5975L70.5648 21.2067H70.4625L68.4235 14.1818H65.5471L68.9796 24H72.0478L75.4803 14.1818ZM88.4753 15.4922C88.111 12.4688 85.8226 10.7301 82.7928 10.7301C79.3347 10.7301 76.6948 13.1719 76.6948 17.4545C76.6948 21.7244 79.29 24.179 82.7928 24.179C86.1486 24.179 88.1749 21.9482 88.4753 19.5384L85.6756 19.5256C85.4135 20.9254 84.3141 21.7308 82.8375 21.7308C80.8496 21.7308 79.5009 20.2543 79.5009 17.4545C79.5009 14.7315 80.8304 13.1783 82.8567 13.1783C84.3716 13.1783 85.4647 14.054 85.6756 15.4922H88.4753ZM93.1319 18.3239C93.1383 17.0582 93.9118 16.3168 95.024 16.3168C96.1298 16.3168 96.7818 17.0263 96.7754 18.2344V24H99.4984V17.7486C99.5048 15.4474 98.1497 14.054 96.1042 14.054C94.6149 14.054 93.6177 14.7571 93.1703 15.9141H93.0552V10.9091H90.4089V24H93.1319V18.3239ZM106.116 24.1918C108.545 24.1918 110.181 23.0092 110.565 21.1875L108.046 21.0213C107.771 21.7692 107.068 22.1591 106.161 22.1591C104.799 22.1591 103.936 21.2578 103.936 19.794V19.7876H110.622V19.0398C110.622 15.7031 108.602 14.054 106.007 14.054C103.118 14.054 101.245 16.1058 101.245 19.1357C101.245 22.2486 103.092 24.1918 106.116 24.1918ZM103.936 18.1001C103.994 16.9815 104.844 16.0866 106.052 16.0866C107.234 16.0866 108.053 16.9304 108.059 18.1001H103.936ZM116.835 24.1918C119.45 24.1918 121.092 22.6577 121.22 20.4013H118.651C118.491 21.4496 117.8 22.0376 116.867 22.0376C115.595 22.0376 114.771 20.9702 114.771 19.0909C114.771 17.2372 115.602 16.1761 116.867 16.1761C117.864 16.1761 118.504 16.8345 118.651 17.8125H121.22C121.105 15.5433 119.386 14.054 116.822 14.054C113.844 14.054 112.003 16.1186 112.003 19.1293C112.003 22.1143 113.812 24.1918 116.835 24.1918ZM122.964 24H125.687V20.8807L126.422 20.0433L129.1 24H132.29L128.461 18.4325L132.104 14.1818H128.979L125.834 17.9084H125.687V10.9091H122.964V24Z" fill="black"/>
</svg>
